<svg xmlns="http://www.w3.org/2000/svg" viewBox="0 0 512 512">
  <rect width="512" height="512" rx="96" fill="#0f766e"/>
  <g fill="#ffffff">
    <path d="M256 120c-88 0-160 62-160 138 0 24 8 44 24 60l-14 62 66-26c26 12 55 18 84 18 88 0 160-62 160-138s-72-138-160-138z" opacity="0.15"/>
    <path d="M170 190c0-11 9-20 20-20s20 9 20 20v70c0 17-10 31-24 38l6 62c1 8-6 15-14 15s-15-7-14-15l6-62c-14-7-24-21-24-38v-70z"/>
    <path d="M300 170c22 0 40 22 40 60 0 30-11 52-28 60l4 68c1 8-6 15-14 15s-15-7-14-15l4-64c-19-7-32-31-32-64 0-38 18-60 40-60z"/>
  </g>
</svg>
